<svg xmlns="http://www.w3.org/2000/svg" width="32" height="40" viewBox="0 0 32 40">
  <metadata><?xpacket begin="﻿" id="W5M0MpCehiHzreSzNTczkc9d"?>
<x:xmpmeta xmlns:x="adobe:ns:meta/" x:xmptk="Adobe XMP Core 5.6-c138 79.159824, 2016/09/14-01:09:01        ">
   <rdf:RDF xmlns:rdf="http://www.w3.org/1999/02/22-rdf-syntax-ns#">
      <rdf:Description rdf:about=""/>
   </rdf:RDF>
</x:xmpmeta>
                                                                                                    
                                                                                                    
                                                                                                    
                                                                                                    
                                                                                                    
                                                                                                    
                                                                                                    
                                                                                                    
                                                                                                    
                                                                                                    
                                                                                                    
                                                                                                    
                                                                                                    
                                                                                                    
                                                                                                    
                                                                                                    
                                                                                                    
                                                                                                    
                                                                                                    
                                                                                                    
                           
<?xpacket end="w"?></metadata>
<defs>
    <style>
      .cls-1 {
        fill: #fff;
        fill-rule: evenodd;
      }
    </style>
  </defs>
  <path class="cls-1" d="M740.707,1028.71a2.344,2.344,0,0,0-1.207-.71H722a4.784,4.784,0,0,0-1.5.22,3.031,3.031,0,0,0-.5,1.78v36a4.674,4.674,0,0,0,.225,1.5,2.965,2.965,0,0,0,1.775.5h28a4.784,4.784,0,0,0,1.5-.22,3.031,3.031,0,0,0,.5-1.78v-25a2.792,2.792,0,0,0-.707-1.71ZM748,1063a1,1,0,0,1-1,1H725a1,1,0,0,1-1-1v-30a1,1,0,0,1,1-1h12a1,1,0,0,1,1,1v8a1,1,0,0,0,1,1h8a1,1,0,0,1,1,1v20Z" transform="translate(-720 -1028)"/>
</svg>
