<svg xmlns="http://www.w3.org/2000/svg" width="36" height="32" viewBox="0 0 36 32">
  <metadata><?xpacket begin="﻿" id="W5M0MpCehiHzreSzNTczkc9d"?>
<x:xmpmeta xmlns:x="adobe:ns:meta/" x:xmptk="Adobe XMP Core 5.6-c138 79.159824, 2016/09/14-01:09:01        ">
   <rdf:RDF xmlns:rdf="http://www.w3.org/1999/02/22-rdf-syntax-ns#">
      <rdf:Description rdf:about=""/>
   </rdf:RDF>
</x:xmpmeta>
                                                                                                    
                                                                                                    
                                                                                                    
                                                                                                    
                                                                                                    
                                                                                                    
                                                                                                    
                                                                                                    
                                                                                                    
                                                                                                    
                                                                                                    
                                                                                                    
                                                                                                    
                                                                                                    
                                                                                                    
                                                                                                    
                                                                                                    
                                                                                                    
                                                                                                    
                                                                                                    
                           
<?xpacket end="w"?></metadata>
<defs>
    <style>
      .cls-1 {
        fill: #fff;
        fill-rule: evenodd;
      }
    </style>
  </defs>
  <path class="cls-1" d="M1240.5,786.443l1.83,2.805,2.38-3.67-0.85-1.314A10.154,10.154,0,0,0,1236,780h-6v4h6A6.271,6.271,0,0,1,1240.5,786.443ZM1257,784h3v4l6-6-6-6v4h-3a10.157,10.157,0,0,0-7.86,4.264l-8.64,13.293A6.271,6.271,0,0,1,1236,800h-6v4h6a10.154,10.154,0,0,0,7.86-4.264l8.64-13.293A6.267,6.267,0,0,1,1257,784Zm3,16h-3a6.267,6.267,0,0,1-4.5-2.443l-1.83-2.8-2.38,3.669,0.85,1.314A10.154,10.154,0,0,0,1257,804h3v4l6-6-6-6v4Z" transform="translate(-1230 -776)"/>
</svg>
