<svg xmlns="http://www.w3.org/2000/svg" width="32" height="40" viewBox="0 0 32 40">
  <metadata><?xpacket begin="﻿" id="W5M0MpCehiHzreSzNTczkc9d"?>
<x:xmpmeta xmlns:x="adobe:ns:meta/" x:xmptk="Adobe XMP Core 5.6-c138 79.159824, 2016/09/14-01:09:01        ">
   <rdf:RDF xmlns:rdf="http://www.w3.org/1999/02/22-rdf-syntax-ns#">
      <rdf:Description rdf:about=""/>
   </rdf:RDF>
</x:xmpmeta>
                                                                                                    
                                                                                                    
                                                                                                    
                                                                                                    
                                                                                                    
                                                                                                    
                                                                                                    
                                                                                                    
                                                                                                    
                                                                                                    
                                                                                                    
                                                                                                    
                                                                                                    
                                                                                                    
                                                                                                    
                                                                                                    
                                                                                                    
                                                                                                    
                                                                                                    
                                                                                                    
                           
<?xpacket end="w"?></metadata>
<defs>
    <style>
      .cls-1 {
        fill: #fff;
        fill-rule: evenodd;
      }
    </style>
  </defs>
  <path class="cls-1" d="M367.96,922.981a16.356,16.356,0,0,0-1.12-5.231,15.931,15.931,0,0,1-.679-1.491,16.164,16.164,0,0,1-.717-9.778c0.056-.24.116-0.48,0.182-0.717q-0.348.283-.668,0.6a10.125,10.125,0,0,0-2.788,4.916,10.013,10.013,0,0,0-.21,1.158c-0.013.176-.025,0.352-0.045,0.527a11.117,11.117,0,0,1-7.188,9.144,15.16,15.16,0,0,0-2.684-21.562c-0.239-.184-0.475-0.37-0.725-0.538,0.052,0.166.086,0.339,0.131,0.508a15.285,15.285,0,0,1,.461,2.389,15.313,15.313,0,0,1-.214,4.694,15.143,15.143,0,0,1-1.908,4.857c-0.184.3-.373,0.6-0.576,0.89a15.133,15.133,0,0,1-4.122,3.981,15.6,15.6,0,0,1-.09-1.64,15.3,15.3,0,0,0-3.465-9.708c-0.193-.236-0.4-0.456-0.608-0.679,0.046,0.485.073,0.976,0.073,1.473,0,0.09-.012.178-0.014,0.268a15.322,15.322,0,0,1-2.1,7.477c-0.193.327-.39,0.65-0.6,0.961a16.21,16.21,0,0,0-1.753,4.237,16.478,16.478,0,0,0,.388,9.445A16.006,16.006,0,0,0,352,940a15.791,15.791,0,0,0,9.974-3.547A16.383,16.383,0,0,0,368,923.791C368,923.518,367.973,923.251,367.96,922.981Z" transform="translate(-336 -900)"/>
</svg>
