<svg xmlns="http://www.w3.org/2000/svg" width="36" height="36" viewBox="0 0 36 36">
  <metadata><?xpacket begin="﻿" id="W5M0MpCehiHzreSzNTczkc9d"?>
<x:xmpmeta xmlns:x="adobe:ns:meta/" x:xmptk="Adobe XMP Core 5.6-c138 79.159824, 2016/09/14-01:09:01        ">
   <rdf:RDF xmlns:rdf="http://www.w3.org/1999/02/22-rdf-syntax-ns#">
      <rdf:Description rdf:about=""/>
   </rdf:RDF>
</x:xmpmeta>
                                                                                                    
                                                                                                    
                                                                                                    
                                                                                                    
                                                                                                    
                                                                                                    
                                                                                                    
                                                                                                    
                                                                                                    
                                                                                                    
                                                                                                    
                                                                                                    
                                                                                                    
                                                                                                    
                                                                                                    
                                                                                                    
                                                                                                    
                                                                                                    
                                                                                                    
                                                                                                    
                           
<?xpacket end="w"?></metadata>
<defs>
    <style>
      .cls-1 {
        fill: #fff;
        fill-rule: evenodd;
      }
    </style>
  </defs>
  <path class="cls-1" d="M980.45,1056.03a4.1,4.1,0,0,0-2.2.38,3.875,3.875,0,0,0-1.076.77,1.655,1.655,0,0,0-.134.15,3.891,3.891,0,0,0-.716,1.11,3.876,3.876,0,0,1-.139.38,3.9,3.9,0,0,1-1.581,1.83l-0.156.09a1.621,1.621,0,0,0,.223.02,2.431,2.431,0,0,0,1.35-.37,2.249,2.249,0,0,0,.238-0.16l0.1-.09a2.739,2.739,0,0,1,2.866-.32,3.743,3.743,0,0,0-2.229,1.07,3.8,3.8,0,0,0-.614.81c-0.068.12-.129,0.25-0.184,0.37a3.777,3.777,0,0,0-.3,1.46,3.635,3.635,0,0,0,.039.53c0.009,0.07.019,0.15,0.034,0.22,0.019-.04.044-0.07,0.065-0.11a3.286,3.286,0,0,1,.336-0.5,2.361,2.361,0,0,1,.27-0.3,3.484,3.484,0,0,1,.587-0.48,3.577,3.577,0,0,1,1.185-.51l0.258-.06a3.78,3.78,0,0,1,1.422.04c-0.083.1-.172,0.2-0.269,0.3a3.741,3.741,0,0,0-.813,1.22,3.788,3.788,0,0,0-.27,1.09c-0.007.07-.008,0.15-0.009,0.22q0.114-.135.243-0.27c0.016-.01.033-0.03,0.05-0.04a3.634,3.634,0,0,1,1.057-.72,4.556,4.556,0,0,1,.619-0.22l0.274-.06a3.776,3.776,0,0,0,1.05-.43,3.889,3.889,0,0,0,.806-0.61c0.141-.15.265-0.3,0.383-0.45a4.482,4.482,0,0,0,.391-0.65A4,4,0,0,0,980.45,1056.03Zm28.76-25.23a6.21,6.21,0,0,0-7.47,1.06L987.6,1046H982l-8,8.01,10.23-3.41a3.779,3.779,0,0,0,5.184,5.18L986,1066.01l8-8v-5.6l8.854-8.85,5.29-5.29A6.21,6.21,0,0,0,1009.21,1030.8Zm-5.2,7.2a2,2,0,1,1,2-2A1.993,1.993,0,0,1,1004.01,1038Z" transform="translate(-974 -1030)"/>
</svg>
