<svg xmlns="http://www.w3.org/2000/svg" width="40" height="32" viewBox="0 0 40 32">
  <metadata><?xpacket begin="﻿" id="W5M0MpCehiHzreSzNTczkc9d"?>
<x:xmpmeta xmlns:x="adobe:ns:meta/" x:xmptk="Adobe XMP Core 5.6-c138 79.159824, 2016/09/14-01:09:01        ">
   <rdf:RDF xmlns:rdf="http://www.w3.org/1999/02/22-rdf-syntax-ns#">
      <rdf:Description rdf:about=""/>
   </rdf:RDF>
</x:xmpmeta>
                                                                                                    
                                                                                                    
                                                                                                    
                                                                                                    
                                                                                                    
                                                                                                    
                                                                                                    
                                                                                                    
                                                                                                    
                                                                                                    
                                                                                                    
                                                                                                    
                                                                                                    
                                                                                                    
                                                                                                    
                                                                                                    
                                                                                                    
                                                                                                    
                                                                                                    
                                                                                                    
                           
<?xpacket end="w"?></metadata>
<defs>
    <style>
      .cls-1 {
        fill: #fff;
        fill-rule: evenodd;
      }
    </style>
  </defs>
  <path class="cls-1" d="M1378,144a2,2,0,1,0-2,2A2,2,0,0,0,1378,144Zm12,12a2,2,0,1,0-2,2A2,2,0,0,0,1390,156Zm-26-2a2,2,0,1,0,2,2A2,2,0,0,0,1364,154Zm2.1-7.9a2,2,0,1,0,2.83,0A2,2,0,0,0,1366.1,146.1Zm19.8,0a2,2,0,1,0,0,2.828A2,2,0,0,0,1385.9,146.1Zm4.24-4.241A19.994,19.994,0,0,0,1360.01,168l2.86-2.856a16,16,0,1,1,26.26,0l2.86,2.857A19.976,19.976,0,0,0,1390.14,141.86ZM1373.4,159.5a3,3,0,0,0,5.2,3c0.83-1.435,2.9-11.026,2.9-11.026S1374.23,158.065,1373.4,159.5Z" transform="translate(-1356 -136)"/>
</svg>
