<svg xmlns="http://www.w3.org/2000/svg" width="36" height="36" viewBox="0 0 36 36">
  <metadata><?xpacket begin="﻿" id="W5M0MpCehiHzreSzNTczkc9d"?>
<x:xmpmeta xmlns:x="adobe:ns:meta/" x:xmptk="Adobe XMP Core 5.6-c138 79.159824, 2016/09/14-01:09:01        ">
   <rdf:RDF xmlns:rdf="http://www.w3.org/1999/02/22-rdf-syntax-ns#">
      <rdf:Description rdf:about=""/>
   </rdf:RDF>
</x:xmpmeta>
                                                                                                    
                                                                                                    
                                                                                                    
                                                                                                    
                                                                                                    
                                                                                                    
                                                                                                    
                                                                                                    
                                                                                                    
                                                                                                    
                                                                                                    
                                                                                                    
                                                                                                    
                                                                                                    
                                                                                                    
                                                                                                    
                                                                                                    
                                                                                                    
                                                                                                    
                                                                                                    
                           
<?xpacket end="w"?></metadata>
<defs>
    <style>
      .cls-1 {
        fill: #fff;
        fill-rule: evenodd;
      }
    </style>
  </defs>
  <path class="cls-1" d="M212,809a1,1,0,0,0,1,1h1a4.012,4.012,0,0,0,4-4v-4a4.012,4.012,0,0,0-4-4h-1a1,1,0,0,0-1,1v10Zm24,0a1,1,0,0,1-1,1h-1a4.012,4.012,0,0,1-4-4v-4a4.012,4.012,0,0,1,4-4h1a1,1,0,0,1,1,1v10Zm-12-35a18.02,18.02,0,0,0-18,18v17a1,1,0,0,0,1,1h2a1,1,0,0,0,1-1V792a14,14,0,0,1,28,0v17a1,1,0,0,0,1,1h2a1,1,0,0,0,1-1V792A18.02,18.02,0,0,0,224,774Z" transform="translate(-206 -774)"/>
</svg>
