<svg xmlns="http://www.w3.org/2000/svg" width="32" height="36" viewBox="0 0 32 36">
  <metadata><?xpacket begin="﻿" id="W5M0MpCehiHzreSzNTczkc9d"?>
<x:xmpmeta xmlns:x="adobe:ns:meta/" x:xmptk="Adobe XMP Core 5.6-c138 79.159824, 2016/09/14-01:09:01        ">
   <rdf:RDF xmlns:rdf="http://www.w3.org/1999/02/22-rdf-syntax-ns#">
      <rdf:Description rdf:about=""/>
   </rdf:RDF>
</x:xmpmeta>
                                                                                                    
                                                                                                    
                                                                                                    
                                                                                                    
                                                                                                    
                                                                                                    
                                                                                                    
                                                                                                    
                                                                                                    
                                                                                                    
                                                                                                    
                                                                                                    
                                                                                                    
                                                                                                    
                                                                                                    
                                                                                                    
                                                                                                    
                                                                                                    
                                                                                                    
                                                                                                    
                           
<?xpacket end="w"?></metadata>
<defs>
    <style>
      .cls-1 {
        fill: #fff;
        fill-rule: evenodd;
      }
    </style>
  </defs>
  <path class="cls-1" d="M488,1054a6.021,6.021,0,0,0-3.822,1.37l-10.3-6.17a6.06,6.06,0,0,0,0-2.4l10.3-6.18a5.97,5.97,0,1,0-2.058-3.42l-10.3,6.17a6.005,6.005,0,1,0,0,9.25l10.3,6.18A6,6,0,1,0,488,1054Zm0-21a3,3,0,1,1-3,3A3,3,0,0,1,488,1033Zm-20,18a3,3,0,1,1,3-3A3,3,0,0,1,468,1051Zm20,12a3,3,0,1,1,3-3A3,3,0,0,1,488,1063Z" transform="translate(-462 -1030)"/>
</svg>
