<svg xmlns="http://www.w3.org/2000/svg" width="36" height="34" viewBox="0 0 36 34">
  <metadata><?xpacket begin="﻿" id="W5M0MpCehiHzreSzNTczkc9d"?>
<x:xmpmeta xmlns:x="adobe:ns:meta/" x:xmptk="Adobe XMP Core 5.6-c138 79.159824, 2016/09/14-01:09:01        ">
   <rdf:RDF xmlns:rdf="http://www.w3.org/1999/02/22-rdf-syntax-ns#">
      <rdf:Description rdf:about=""/>
   </rdf:RDF>
</x:xmpmeta>
                                                                                                    
                                                                                                    
                                                                                                    
                                                                                                    
                                                                                                    
                                                                                                    
                                                                                                    
                                                                                                    
                                                                                                    
                                                                                                    
                                                                                                    
                                                                                                    
                                                                                                    
                                                                                                    
                                                                                                    
                                                                                                    
                                                                                                    
                                                                                                    
                                                                                                    
                                                                                                    
                           
<?xpacket end="w"?></metadata>
<defs>
    <style>
      .cls-1 {
        fill: #fff;
        fill-rule: evenodd;
      }
    </style>
  </defs>
  <path class="cls-1" d="M1236.29,1049.12a8.017,8.017,0,0,0-2.14,7.65c0.02,0.07.04,0.15,0.06,0.23a5.442,5.442,0,0,1-4.22,6.3,15.322,15.322,0,0,0,17.81-2.75,8.04,8.04,0,0,0,0-11.43A8.172,8.172,0,0,0,1236.29,1049.12Zm29.39-17.78h0a1.22,1.22,0,0,0-1.53-.1l-16.37,12.36a0.868,0.868,0,0,0-.09,1.33l4.32,4.29a0.879,0.879,0,0,0,1.34-.09l12.44-16.26A1.209,1.209,0,0,0,1265.68,1031.34Z" transform="translate(-1230 -1031)"/>
</svg>
