<svg xmlns="http://www.w3.org/2000/svg" width="36" height="36" viewBox="0 0 36 36">
  <metadata><?xpacket begin="﻿" id="W5M0MpCehiHzreSzNTczkc9d"?>
<x:xmpmeta xmlns:x="adobe:ns:meta/" x:xmptk="Adobe XMP Core 5.6-c138 79.159824, 2016/09/14-01:09:01        ">
   <rdf:RDF xmlns:rdf="http://www.w3.org/1999/02/22-rdf-syntax-ns#">
      <rdf:Description rdf:about=""/>
   </rdf:RDF>
</x:xmpmeta>
                                                                                                    
                                                                                                    
                                                                                                    
                                                                                                    
                                                                                                    
                                                                                                    
                                                                                                    
                                                                                                    
                                                                                                    
                                                                                                    
                                                                                                    
                                                                                                    
                                                                                                    
                                                                                                    
                                                                                                    
                                                                                                    
                                                                                                    
                                                                                                    
                                                                                                    
                                                                                                    
                           
<?xpacket end="w"?></metadata>
<defs>
    <style>
      .cls-1 {
        fill: #fff;
        fill-rule: evenodd;
      }
    </style>
  </defs>
  <path class="cls-1" d="M242,283v-6l-4.459-.5a13.927,13.927,0,0,0-1.494-3.611l2.8-3.5-4.243-4.244-3.5,2.8a13.935,13.935,0,0,0-3.611-1.5L227,262h-6l-0.5,4.457a13.914,13.914,0,0,0-3.61,1.5l-3.5-2.8-4.245,4.244,2.8,3.5a13.982,13.982,0,0,0-1.494,3.611L206,277v6l4.457,0.5a13.947,13.947,0,0,0,1.494,3.61l-2.8,3.5,4.245,4.244,3.5-2.8a13.877,13.877,0,0,0,3.61,1.494L221,298h6l0.494-4.458a13.822,13.822,0,0,0,3.609-1.494l3.5,2.8,4.243-4.244-2.8-3.5a13.788,13.788,0,0,0,1.494-3.609Zm-18,2a5,5,0,1,1,5-5A5,5,0,0,1,224,285Z" transform="translate(-206 -262)"/>
</svg>
