<svg xmlns="http://www.w3.org/2000/svg" width="34" height="40" viewBox="0 0 34 40">
  <metadata><?xpacket begin="﻿" id="W5M0MpCehiHzreSzNTczkc9d"?>
<x:xmpmeta xmlns:x="adobe:ns:meta/" x:xmptk="Adobe XMP Core 5.6-c138 79.159824, 2016/09/14-01:09:01        ">
   <rdf:RDF xmlns:rdf="http://www.w3.org/1999/02/22-rdf-syntax-ns#">
      <rdf:Description rdf:about=""/>
   </rdf:RDF>
</x:xmpmeta>
                                                                                                    
                                                                                                    
                                                                                                    
                                                                                                    
                                                                                                    
                                                                                                    
                                                                                                    
                                                                                                    
                                                                                                    
                                                                                                    
                                                                                                    
                                                                                                    
                                                                                                    
                                                                                                    
                                                                                                    
                                                                                                    
                                                                                                    
                                                                                                    
                                                                                                    
                                                                                                    
                           
<?xpacket end="w"?></metadata>
<defs>
    <style>
      .cls-1 {
        fill: #fff;
        fill-rule: evenodd;
      }
    </style>
  </defs>
  <path class="cls-1" d="M485.845,650a5.857,5.857,0,1,0-11.711,0v0.93l11.711,12V650Zm2.31,25.2,6.07,6.219,2.76-2.828-31.231-32-2.76,2.828,11.14,11.414V664a5.946,5.946,0,0,0,5.855,6,5.669,5.669,0,0,0,2.516-.6l2.859,2.93A9.522,9.522,0,0,1,479.989,674a9.893,9.893,0,0,1-9.759-10h-3.9a13.9,13.9,0,0,0,11.712,13.84V680l-3.9,4h11.711l-3.9-4v-2.16A13.385,13.385,0,0,0,488.155,675.2Zm5.5-11.2h-3.9a10.2,10.2,0,0,1-.341,2.58l3.048,3.123A14.193,14.193,0,0,0,493.653,664Z" transform="translate(-463 -644)"/>
</svg>
