<svg xmlns="http://www.w3.org/2000/svg" width="40" height="32" viewBox="0 0 40 32">
  <metadata><?xpacket begin="﻿" id="W5M0MpCehiHzreSzNTczkc9d"?>
<x:xmpmeta xmlns:x="adobe:ns:meta/" x:xmptk="Adobe XMP Core 5.6-c138 79.159824, 2016/09/14-01:09:01        ">
   <rdf:RDF xmlns:rdf="http://www.w3.org/1999/02/22-rdf-syntax-ns#">
      <rdf:Description rdf:about=""/>
   </rdf:RDF>
</x:xmpmeta>
                                                                                                    
                                                                                                    
                                                                                                    
                                                                                                    
                                                                                                    
                                                                                                    
                                                                                                    
                                                                                                    
                                                                                                    
                                                                                                    
                                                                                                    
                                                                                                    
                                                                                                    
                                                                                                    
                                                                                                    
                                                                                                    
                                                                                                    
                                                                                                    
                                                                                                    
                                                                                                    
                           
<?xpacket end="w"?></metadata>
<defs>
    <style>
      .cls-1 {
        fill: #fff;
        fill-rule: evenodd;
      }
    </style>
  </defs>
  <path class="cls-1" d="M752,278.006v-4h-4v4h-4v4h4v4h4v-4h4v-4h-4Zm-14.667,10c-2.153-4.334-1.274-3.528.129-4.6,1.315-1.007,1.253-3.663,2.058-4.606a7.107,7.107,0,0,0,.887-4.734c-0.407-1.37-1.032-.625-1.127-1.659-0.2-2.229.359-4.064-.9-5.148-1.213-1.047-2.732-3.212-5.2-3.242a5.819,5.819,0,0,0-2.958.889c-5.334-.57-5.3,5.272-5.5,7.5-0.1,1.034-.72.289-1.127,1.659a7.112,7.112,0,0,0,.886,4.734c0.806,0.943.744,3.6,2.059,4.606,1.4,1.074,2.282.268,0.129,4.6-1.085,2.185-8.194,1.39-9.6,3.3C716,292.767,716,296,716,296h32s0-3.233-1.072-4.695C745.527,289.393,738.418,290.187,737.333,288Z" transform="translate(-716 -264)"/>
</svg>
