<svg xmlns="http://www.w3.org/2000/svg" width="36" height="36" viewBox="0 0 36 36">
  <metadata><?xpacket begin="﻿" id="W5M0MpCehiHzreSzNTczkc9d"?>
<x:xmpmeta xmlns:x="adobe:ns:meta/" x:xmptk="Adobe XMP Core 5.6-c138 79.159824, 2016/09/14-01:09:01        ">
   <rdf:RDF xmlns:rdf="http://www.w3.org/1999/02/22-rdf-syntax-ns#">
      <rdf:Description rdf:about=""/>
   </rdf:RDF>
</x:xmpmeta>
                                                                                                    
                                                                                                    
                                                                                                    
                                                                                                    
                                                                                                    
                                                                                                    
                                                                                                    
                                                                                                    
                                                                                                    
                                                                                                    
                                                                                                    
                                                                                                    
                                                                                                    
                                                                                                    
                                                                                                    
                                                                                                    
                                                                                                    
                                                                                                    
                                                                                                    
                                                                                                    
                           
<?xpacket end="w"?></metadata>
<defs>
    <style>
      .cls-1 {
        fill: #fff;
        fill-rule: evenodd;
      }
    </style>
  </defs>
  <path class="cls-1" d="M624.794,292.719c-1.575-2.152-9.573-1.259-10.794-3.718-2.423-4.875-1.434-3.969.144-5.177,1.481-1.133,1.411-4.121,2.317-5.182,0.919-1.077,1.343-4.164,1-5.326-0.458-1.541-1.161-.7-1.268-1.866-0.229-2.508.4-4.571-1.008-5.791-1.365-1.179-3.074-3.613-5.854-3.648a6.556,6.556,0,0,0-3.328,1c-6-.64-5.961,5.931-6.19,8.439-0.107,1.163-.81.325-1.268,1.866-0.346,1.162.078,4.249,1,5.326,0.906,1.061.836,4.049,2.316,5.182,1.579,1.208,2.568.3,0.145,5.179-1.221,2.458-9.219,1.564-10.794,3.716C590,294.363,590,298,590,298h36S626,294.363,624.794,292.719Z" transform="translate(-590 -262)"/>
</svg>
