<svg xmlns="http://www.w3.org/2000/svg" width="36" height="36" viewBox="0 0 36 36">
  <metadata><?xpacket begin="﻿" id="W5M0MpCehiHzreSzNTczkc9d"?>
<x:xmpmeta xmlns:x="adobe:ns:meta/" x:xmptk="Adobe XMP Core 5.6-c138 79.159824, 2016/09/14-01:09:01        ">
   <rdf:RDF xmlns:rdf="http://www.w3.org/1999/02/22-rdf-syntax-ns#">
      <rdf:Description rdf:about=""/>
   </rdf:RDF>
</x:xmpmeta>
                                                                                                    
                                                                                                    
                                                                                                    
                                                                                                    
                                                                                                    
                                                                                                    
                                                                                                    
                                                                                                    
                                                                                                    
                                                                                                    
                                                                                                    
                                                                                                    
                                                                                                    
                                                                                                    
                                                                                                    
                                                                                                    
                                                                                                    
                                                                                                    
                                                                                                    
                                                                                                    
                           
<?xpacket end="w"?></metadata>
<defs>
    <style>
      .cls-1 {
        fill: #fff;
        fill-rule: evenodd;
      }
    </style>
  </defs>
  <path class="cls-1" d="M1137,1034h-19.35a5.99,5.99,0,0,0-11.3,0H1103a1,1,0,0,0-1,1v2a1,1,0,0,0,1,1h3.35a5.99,5.99,0,0,0,11.3,0H1137a1,1,0,0,0,1-1v-2A1,1,0,0,0,1137,1034Zm-25,5a3,3,0,1,1,3-3A3,3,0,0,1,1112,1039Zm25,7h-3.35a5.99,5.99,0,0,0-11.3,0H1103a1,1,0,0,0-1,1v2a1,1,0,0,0,1,1h19.35a5.99,5.99,0,0,0,11.3,0H1137a1,1,0,0,0,1-1v-2A1,1,0,0,0,1137,1046Zm-9,5a3,3,0,1,1,3-3A3,3,0,0,1,1128,1051Zm9,7h-15.35a5.99,5.99,0,0,0-11.3,0H1103a1,1,0,0,0-1,1v2a1,1,0,0,0,1,1h7.35a5.99,5.99,0,0,0,11.3,0H1137a1,1,0,0,0,1-1v-2A1,1,0,0,0,1137,1058Zm-21,5a3,3,0,1,1,3-3A3,3,0,0,1,1116,1063Z" transform="translate(-1102 -1030)"/>
</svg>
