<svg xmlns="http://www.w3.org/2000/svg" width="8" height="36" viewBox="0 0 8 36">
  <metadata><?xpacket begin="﻿" id="W5M0MpCehiHzreSzNTczkc9d"?>
<x:xmpmeta xmlns:x="adobe:ns:meta/" x:xmptk="Adobe XMP Core 5.6-c138 79.159824, 2016/09/14-01:09:01        ">
   <rdf:RDF xmlns:rdf="http://www.w3.org/1999/02/22-rdf-syntax-ns#">
      <rdf:Description rdf:about=""/>
   </rdf:RDF>
</x:xmpmeta>
                                                                                                    
                                                                                                    
                                                                                                    
                                                                                                    
                                                                                                    
                                                                                                    
                                                                                                    
                                                                                                    
                                                                                                    
                                                                                                    
                                                                                                    
                                                                                                    
                                                                                                    
                                                                                                    
                                                                                                    
                                                                                                    
                                                                                                    
                                                                                                    
                                                                                                    
                                                                                                    
                           
<?xpacket end="w"?></metadata>
<defs>
    <style>
      .cls-1 {
        fill: #fff;
        fill-rule: evenodd;
      }
    </style>
  </defs>
  <path class="cls-1" d="M992,518a4.012,4.012,0,0,0-4,4h0a4.012,4.012,0,0,0,4,4h0a4.012,4.012,0,0,0,4-4h0a4.012,4.012,0,0,0-4-4h0Zm-4,32a4.012,4.012,0,0,0,4,4h0a4.012,4.012,0,0,0,4-4h0a4.012,4.012,0,0,0-4-4h0a4.012,4.012,0,0,0-4,4h0Zm0-14a4.012,4.012,0,0,0,4,4h0a4.012,4.012,0,0,0,4-4h0a4.012,4.012,0,0,0-4-4h0a4.012,4.012,0,0,0-4,4h0Z" transform="translate(-988 -518)"/>
</svg>
