<svg xmlns="http://www.w3.org/2000/svg" width="36" height="36" viewBox="0 0 36 36">
  <metadata><?xpacket begin="﻿" id="W5M0MpCehiHzreSzNTczkc9d"?>
<x:xmpmeta xmlns:x="adobe:ns:meta/" x:xmptk="Adobe XMP Core 5.6-c138 79.159824, 2016/09/14-01:09:01        ">
   <rdf:RDF xmlns:rdf="http://www.w3.org/1999/02/22-rdf-syntax-ns#">
      <rdf:Description rdf:about=""/>
   </rdf:RDF>
</x:xmpmeta>
                                                                                                    
                                                                                                    
                                                                                                    
                                                                                                    
                                                                                                    
                                                                                                    
                                                                                                    
                                                                                                    
                                                                                                    
                                                                                                    
                                                                                                    
                                                                                                    
                                                                                                    
                                                                                                    
                                                                                                    
                                                                                                    
                                                                                                    
                                                                                                    
                                                                                                    
                                                                                                    
                           
<?xpacket end="w"?></metadata>
<defs>
    <style>
      .cls-1 {
        fill: #fff;
        fill-rule: evenodd;
      }
    </style>
  </defs>
  <path class="cls-1" d="M859.027,162a4,4,0,1,0,4.008,4A4,4,0,0,0,859.027,162Zm15.031,0a4,4,0,1,0,4.009,4A4,4,0,0,0,874.058,162Zm1.9-9.329,5.8-11.565A2.139,2.139,0,0,0,879.821,138H854.752l-0.527-1.65A3.445,3.445,0,0,0,851.01,134H846v4h4.547l6.267,19.65a3.446,3.446,0,0,0,3.216,2.35h18.038v-4H860.493l-0.638-2h13.953A2.454,2.454,0,0,0,875.963,152.671Z" transform="translate(-846 -134)"/>
</svg>
