<svg xmlns="http://www.w3.org/2000/svg" width="36" height="36" viewBox="0 0 36 36">
  <metadata><?xpacket begin="﻿" id="W5M0MpCehiHzreSzNTczkc9d"?>
<x:xmpmeta xmlns:x="adobe:ns:meta/" x:xmptk="Adobe XMP Core 5.6-c138 79.159824, 2016/09/14-01:09:01        ">
   <rdf:RDF xmlns:rdf="http://www.w3.org/1999/02/22-rdf-syntax-ns#">
      <rdf:Description rdf:about=""/>
   </rdf:RDF>
</x:xmpmeta>
                                                                                                    
                                                                                                    
                                                                                                    
                                                                                                    
                                                                                                    
                                                                                                    
                                                                                                    
                                                                                                    
                                                                                                    
                                                                                                    
                                                                                                    
                                                                                                    
                                                                                                    
                                                                                                    
                                                                                                    
                                                                                                    
                                                                                                    
                                                                                                    
                                                                                                    
                                                                                                    
                           
<?xpacket end="w"?></metadata>
<defs>
    <style>
      .cls-1 {
        fill: #fff;
        fill-rule: evenodd;
      }
    </style>
  </defs>
  <path class="cls-1" d="M846,533a1,1,0,0,0,1,1h14a1,1,0,0,0,1-1V519a1,1,0,0,0-1-1H847a1,1,0,0,0-1,1v14Zm0,20a1,1,0,0,0,1,1h14a1,1,0,0,0,1-1V539a1,1,0,0,0-1-1H847a1,1,0,0,0-1,1v14Zm21-35a1,1,0,0,0-1,1v14a1,1,0,0,0,1,1h14a1,1,0,0,0,1-1V519a1,1,0,0,0-1-1H867Zm-1,35a1,1,0,0,0,1,1h14a1,1,0,0,0,1-1V539a1,1,0,0,0-1-1H867a1,1,0,0,0-1,1v14Z" transform="translate(-846 -518)"/>
</svg>
