<svg xmlns="http://www.w3.org/2000/svg" width="36" height="36" viewBox="0 0 36 36">
  <metadata><?xpacket begin="﻿" id="W5M0MpCehiHzreSzNTczkc9d"?>
<x:xmpmeta xmlns:x="adobe:ns:meta/" x:xmptk="Adobe XMP Core 5.6-c138 79.159824, 2016/09/14-01:09:01        ">
   <rdf:RDF xmlns:rdf="http://www.w3.org/1999/02/22-rdf-syntax-ns#">
      <rdf:Description rdf:about=""/>
   </rdf:RDF>
</x:xmpmeta>
                                                                                                    
                                                                                                    
                                                                                                    
                                                                                                    
                                                                                                    
                                                                                                    
                                                                                                    
                                                                                                    
                                                                                                    
                                                                                                    
                                                                                                    
                                                                                                    
                                                                                                    
                                                                                                    
                                                                                                    
                                                                                                    
                                                                                                    
                                                                                                    
                                                                                                    
                                                                                                    
                           
<?xpacket end="w"?></metadata>
<defs>
    <style>
      .cls-1 {
        fill: #fff;
        fill-rule: evenodd;
      }
    </style>
  </defs>
  <path class="cls-1" d="M239.682,413.967a3,3,0,0,0-.693-0.087c-0.011,0-.019,0-0.03,0a23.927,23.927,0,0,1-9.4-3.264l-4.358,4.455A33.466,33.466,0,0,1,217.013,407h0l4.364-4.456a24.144,24.144,0,0,1-3.263-9.454c0-.011,0-0.045,0-0.055a3.077,3.077,0,0,0-.087-0.7A3.015,3.015,0,0,0,215.11,390h-6.1a3.006,3.006,0,0,0-3,2.937c0,0.025-.007.048-0.007,0.074a2.947,2.947,0,0,0,.051.509,36.047,36.047,0,0,0,32.42,32.428,3.062,3.062,0,0,0,.518.052c0.026,0,.049-0.007.074-0.008a3,3,0,0,0,2.937-3v-6.1A3.006,3.006,0,0,0,239.682,413.967Z" transform="translate(-206 -390)"/>
</svg>
