<svg xmlns="http://www.w3.org/2000/svg" width="40" height="35" viewBox="0 0 40 35">
  <metadata><?xpacket begin="﻿" id="W5M0MpCehiHzreSzNTczkc9d"?>
<x:xmpmeta xmlns:x="adobe:ns:meta/" x:xmptk="Adobe XMP Core 5.6-c138 79.159824, 2016/09/14-01:09:01        ">
   <rdf:RDF xmlns:rdf="http://www.w3.org/1999/02/22-rdf-syntax-ns#">
      <rdf:Description rdf:about=""/>
   </rdf:RDF>
</x:xmpmeta>
                                                                                                    
                                                                                                    
                                                                                                    
                                                                                                    
                                                                                                    
                                                                                                    
                                                                                                    
                                                                                                    
                                                                                                    
                                                                                                    
                                                                                                    
                                                                                                    
                                                                                                    
                                                                                                    
                                                                                                    
                                                                                                    
                                                                                                    
                                                                                                    
                                                                                                    
                                                                                                    
                           
<?xpacket end="w"?></metadata>
<defs>
    <style>
      .cls-1 {
        fill: #fff;
        fill-rule: evenodd;
      }
    </style>
  </defs>
  <path class="cls-1" d="M1248,656.457a8.021,8.021,0,0,1,8,8.044,8.584,8.584,0,0,1-.05.884l5.8,5.838A35.8,35.8,0,0,0,1268,664.5c-5.48-7.543-12.43-12.066-20-12.066a19.028,19.028,0,0,0-4.41.525l3.53,3.548A8.221,8.221,0,0,1,1248,656.457Zm-17.41-6.623,6.11,6.15a33.532,33.532,0,0,0-8.7,8.517c5.48,7.544,12.43,12.067,20,12.067a19.539,19.539,0,0,0,7.6-1.579l6.99,7.023,2.82-2.843-32-32.178ZM1240,664.5a7.96,7.96,0,0,1,1.12-4.079l3.03,3.05a3.9,3.9,0,0,0-.15,1.029,4.013,4.013,0,0,0,4,4.023,3.851,3.851,0,0,0,1.02-.152l1.56,1.565,1.47,1.485a7.881,7.881,0,0,1-4.05,1.124A8.022,8.022,0,0,1,1240,664.5Z" transform="translate(-1228 -647)"/>
</svg>
