<svg xmlns="http://www.w3.org/2000/svg" width="36" height="36" viewBox="0 0 36 36">
  <metadata><?xpacket begin="﻿" id="W5M0MpCehiHzreSzNTczkc9d"?>
<x:xmpmeta xmlns:x="adobe:ns:meta/" x:xmptk="Adobe XMP Core 5.6-c138 79.159824, 2016/09/14-01:09:01        ">
   <rdf:RDF xmlns:rdf="http://www.w3.org/1999/02/22-rdf-syntax-ns#">
      <rdf:Description rdf:about=""/>
   </rdf:RDF>
</x:xmpmeta>
                                                                                                    
                                                                                                    
                                                                                                    
                                                                                                    
                                                                                                    
                                                                                                    
                                                                                                    
                                                                                                    
                                                                                                    
                                                                                                    
                                                                                                    
                                                                                                    
                                                                                                    
                                                                                                    
                                                                                                    
                                                                                                    
                                                                                                    
                                                                                                    
                                                                                                    
                                                                                                    
                           
<?xpacket end="w"?></metadata>
<defs>
    <style>
      .cls-1 {
        fill: #fff;
        fill-rule: evenodd;
      }
    </style>
  </defs>
  <path class="cls-1" d="M856.928,1057.97a11.27,11.27,0,0,0,13.368-8.66,9.172,9.172,0,0,1,13.689-6,18.34,18.34,0,0,0-1.14-2.93,18.715,18.715,0,0,0-.994-1.8,18.39,18.39,0,0,0-33.271,4.88c-0.1.37-.217,0.74-0.3,1.12a11.279,11.279,0,0,0,3.056,10.33,32.933,32.933,0,0,0-1.844,4.37c-0.373,1.14-.672,2.27-0.912,3.36-0.219,1.09-.45,2.35-0.552,3.37h4.532c-0.033-.79,0-1.82.06-2.78,0.078-.97.2-1.98,0.389-3.03a28.568,28.568,0,0,1,5.508-12.26,29.15,29.15,0,0,1,4.173-4.39,1.75,1.75,0,0,1,.6-0.42C856.262,1051.32,856.928,1057.97,856.928,1057.97Z" transform="translate(-848 -1030)"/>
</svg>
