<svg xmlns="http://www.w3.org/2000/svg" width="36" height="32" viewBox="0 0 36 32">
  <metadata><?xpacket begin="﻿" id="W5M0MpCehiHzreSzNTczkc9d"?>
<x:xmpmeta xmlns:x="adobe:ns:meta/" x:xmptk="Adobe XMP Core 5.6-c138 79.159824, 2016/09/14-01:09:01        ">
   <rdf:RDF xmlns:rdf="http://www.w3.org/1999/02/22-rdf-syntax-ns#">
      <rdf:Description rdf:about=""/>
   </rdf:RDF>
</x:xmpmeta>
                                                                                                    
                                                                                                    
                                                                                                    
                                                                                                    
                                                                                                    
                                                                                                    
                                                                                                    
                                                                                                    
                                                                                                    
                                                                                                    
                                                                                                    
                                                                                                    
                                                                                                    
                                                                                                    
                                                                                                    
                                                                                                    
                                                                                                    
                                                                                                    
                                                                                                    
                                                                                                    
                           
<?xpacket end="w"?></metadata>
<defs>
    <style>
      .cls-1 {
        fill: #fff;
        fill-rule: evenodd;
      }
    </style>
  </defs>
  <path class="cls-1" d="M872,916h-7v-1a3,3,0,0,0-3-3h-4a1,1,0,0,1,0-2h14a3,3,0,0,0,0-6h-8v2h8a1,1,0,0,1,0,2H858a3,3,0,0,0,0,6h4a1,1,0,0,1,1,1v1h-7a10,10,0,0,0,0,20h16A10,10,0,0,0,872,916Zm-16,15a5,5,0,1,1,5-5A5,5,0,0,1,856,931Zm14,0a2,2,0,1,1,2-2A2,2,0,0,1,870,931Zm4-6a2,2,0,1,1,2-2A2,2,0,0,1,874,925Z" transform="translate(-846 -904)"/>
</svg>
