<svg xmlns="http://www.w3.org/2000/svg" width="36" height="36" viewBox="0 0 36 36">
  <metadata><?xpacket begin="﻿" id="W5M0MpCehiHzreSzNTczkc9d"?>
<x:xmpmeta xmlns:x="adobe:ns:meta/" x:xmptk="Adobe XMP Core 5.6-c138 79.159824, 2016/09/14-01:09:01        ">
   <rdf:RDF xmlns:rdf="http://www.w3.org/1999/02/22-rdf-syntax-ns#">
      <rdf:Description rdf:about=""/>
   </rdf:RDF>
</x:xmpmeta>
                                                                                                    
                                                                                                    
                                                                                                    
                                                                                                    
                                                                                                    
                                                                                                    
                                                                                                    
                                                                                                    
                                                                                                    
                                                                                                    
                                                                                                    
                                                                                                    
                                                                                                    
                                                                                                    
                                                                                                    
                                                                                                    
                                                                                                    
                                                                                                    
                                                                                                    
                                                                                                    
                           
<?xpacket end="w"?></metadata>
<defs>
    <style>
      .cls-1 {
        fill: #fff;
        fill-rule: evenodd;
      }
    </style>
  </defs>
  <path class="cls-1" d="M1009.5,646.5a1.73,1.73,0,0,0-2.44,0l-1.69,1.687-0.9-.9a1,1,0,0,0-1.41,0l-27.579,27.576a1,1,0,0,0,0,1.414l1.068,1.068-2.544,2.544v2.106h2.106l2.543-2.543,1.07,1.069a1,1,0,0,0,1.414,0L1003,658.65v2.365l-6.78,6.892,1.425,1.4,7.355-7.475V656.65l3.71-3.71a1,1,0,0,0,0-1.414l-0.9-.9,1.69-1.686A1.736,1.736,0,0,0,1009.5,646.5Z" transform="translate(-974 -646)"/>
</svg>
