<svg xmlns="http://www.w3.org/2000/svg" width="36" height="36" viewBox="0 0 36 36">
  <metadata><?xpacket begin="﻿" id="W5M0MpCehiHzreSzNTczkc9d"?>
<x:xmpmeta xmlns:x="adobe:ns:meta/" x:xmptk="Adobe XMP Core 5.6-c138 79.159824, 2016/09/14-01:09:01        ">
   <rdf:RDF xmlns:rdf="http://www.w3.org/1999/02/22-rdf-syntax-ns#">
      <rdf:Description rdf:about=""/>
   </rdf:RDF>
</x:xmpmeta>
                                                                                                    
                                                                                                    
                                                                                                    
                                                                                                    
                                                                                                    
                                                                                                    
                                                                                                    
                                                                                                    
                                                                                                    
                                                                                                    
                                                                                                    
                                                                                                    
                                                                                                    
                                                                                                    
                                                                                                    
                                                                                                    
                                                                                                    
                                                                                                    
                                                                                                    
                                                                                                    
                           
<?xpacket end="w"?></metadata>
<defs>
    <style>
      .cls-1 {
        fill: #fff;
        fill-rule: evenodd;
      }
    </style>
  </defs>
  <path class="cls-1" d="M619,1034v-3a1,1,0,0,0-1-1H598a1,1,0,0,0-1,1v3h-7v8a9.011,9.011,0,0,0,8.2,8.96,11.008,11.008,0,0,0,7.8,5.85V1062l-4,4h12l-4-4v-5.19a11.01,11.01,0,0,0,7.8-5.85A9.011,9.011,0,0,0,626,1042v-8h-7Zm-25,8v-4h3v8c0,0.2.019,0.4,0.03,0.59A4.992,4.992,0,0,1,594,1042Zm28,0a4.993,4.993,0,0,1-3.03,4.59c0.01-.19.03-0.39,0.03-0.59v-8h3v4Z" transform="translate(-590 -1030)"/>
</svg>
