<svg xmlns="http://www.w3.org/2000/svg" width="40" height="32" viewBox="0 0 40 32">
  <metadata><?xpacket begin="﻿" id="W5M0MpCehiHzreSzNTczkc9d"?>
<x:xmpmeta xmlns:x="adobe:ns:meta/" x:xmptk="Adobe XMP Core 5.6-c138 79.159824, 2016/09/14-01:09:01        ">
   <rdf:RDF xmlns:rdf="http://www.w3.org/1999/02/22-rdf-syntax-ns#">
      <rdf:Description rdf:about=""/>
   </rdf:RDF>
</x:xmpmeta>
                                                                                                    
                                                                                                    
                                                                                                    
                                                                                                    
                                                                                                    
                                                                                                    
                                                                                                    
                                                                                                    
                                                                                                    
                                                                                                    
                                                                                                    
                                                                                                    
                                                                                                    
                                                                                                    
                                                                                                    
                                                                                                    
                                                                                                    
                                                                                                    
                                                                                                    
                                                                                                    
                           
<?xpacket end="w"?></metadata>
<defs>
    <style>
      .cls-1 {
        fill: #fff;
        fill-rule: evenodd;
      }
    </style>
  </defs>
  <path class="cls-1" d="M755,652h-3v-1a1,1,0,0,0-1-1h-2a1,1,0,0,0-1,1v1h-2l-4-4H730l-4,4h-9a1,1,0,0,0-1,1v26a1,1,0,0,0,1,1h38a1,1,0,0,0,1-1V653A1,1,0,0,0,755,652Zm-19,24a10,10,0,1,1,10-10A10,10,0,0,1,736,676Zm0-16a6,6,0,1,0,6,6A6,6,0,0,0,736,660Z" transform="translate(-716 -648)"/>
</svg>
